# xmcd
# 
# Track frame offsets:
#     182
#     13667
#     29947
#     46675
#     82582
#     97465
#     110930
#     126312
#     142205
#     151655
#     167040
#     180130
#     191865
#     202080
# 
# Disc length: 2962
# 
# Revision: 6
# Processed by: cddbd v1.5.2PL0 Copyright (c) Steve Scherf et al.
# Submitted via: fre:ac v1.1beta1pre3
# 
DISCID=c70b900e
DTITLE=Tom Jobim - Minha História
DYEAR=0
DGENRE=MPB
TTITLE0=Luiza
TTITLE1=Passarim
TTITLE2=Anos Dourados
TTITLE3=Gabriela
TTITLE4=Chansong
TTITLE5=Samba Do Soho
TTITLE6=Garota De Ipanema
TTITLE7=Aguas De Março
TTITLE8=A Felicidade
TTITLE9=Só Tinha De Ser Com Você
TTITLE10=Insensatez
TTITLE11=Dindi
TTITLE12=Samba De Uma Nota Só
TTITLE13=Se Todos Fossem Iguais A Você - Eu Sei Que Vou Te Amar
EXTD=ID3G:   0
EXTT0=
EXTT1=
EXTT2=
EXTT3=
EXTT4=
EXTT5=
EXTT6=
EXTT7=
EXTT8=
EXTT9=
EXTT10=
EXTT11=
EXTT12=
EXTT13=
PLAYORDER=
